<?xml version="1.0" standalone="no"?>
<!DOCTYPE svg PUBLIC "-//W3C//DTD SVG 20010904//EN"
 "http://www.w3.org/TR/2001/REC-SVG-20010904/DTD/svg10.dtd">
<svg version="1.0" xmlns="http://www.w3.org/2000/svg"
 width="500.000000pt" height="500.000000pt" viewBox="0 0 500.000000 500.000000"
 preserveAspectRatio="xMidYMid meet">
<metadata>
Created by potrace 1.11, written by Peter Selinger 2001-2013
</metadata>
<g transform="translate(0.000000,500.000000) scale(0.100000,-0.100000)"
fill="#000000" stroke="none">
<path d="M2440 4919 c-599 -53 -1141 -410 -1424 -937 -158 -296 -224 -576
-213 -909 6 -195 26 -300 93 -503 152 -454 467 -947 973 -1525 57 -66 227
-242 376 -391 l272 -270 -196 -12 c-367 -23 -443 -63 -188 -99 145 -21 713
-24 860 -4 111 14 178 31 180 46 4 24 -137 47 -370 61 l-113 6 263 262 c597
593 986 1106 1236 1627 145 304 208 533 218 804 22 579 -256 1149 -731 1499
-268 198 -577 314 -916 345 -128 12 -182 12 -320 0z m-350 -203 c-8 -8 -73
-40 -143 -72 -232 -103 -385 -210 -550 -384 -140 -148 -244 -310 -350 -547
-49 -111 -62 -109 -54 8 15 202 131 428 327 632 124 130 238 215 385 288 133
65 212 87 325 88 64 1 72 -1 60 -13z m741 -182 c196 -33 421 -128 583 -247
167 -123 329 -315 423 -500 52 -105 110 -289 127 -408 79 -534 -151 -1057
-596 -1357 -140 -94 -279 -155 -458 -200 -96 -24 -123 -26 -305 -27 -155 0
-219 4 -282 18 -270 58 -486 173 -683 363 -212 205 -340 436 -402 727 -30 145
-30 389 0 534 123 573 553 994 1122 1098 106 19 355 19 471 -1z m1065 -2117
c-29 -232 -358 -557 -580 -574 l-61 -4 82 45 c256 139 395 281 517 525 21 40
40 71 43 67 3 -3 2 -29 -1 -59z"/>
<path d="M2357 4453 c-4 -7 20 -154 26 -159 1 -1 9 1 18 5 14 5 14 14 1 84 -9
51 -18 77 -27 77 -8 0 -16 -3 -18 -7z"/>
<path d="M2580 4400 c0 -47 3 -60 15 -60 12 0 15 13 15 60 0 47 -3 60 -15 60
-12 0 -15 -13 -15 -60z"/>
<path d="M2798 4383 c-13 -70 -13 -79 1 -84 9 -4 17 -6 18 -5 6 5 30 152 26
159 -2 4 -10 7 -18 7 -9 0 -18 -26 -27 -77z"/>
<path d="M2460 4390 c0 -39 3 -50 16 -50 12 0 15 6 10 23 -3 12 -6 34 -6 50 0
15 -4 27 -10 27 -5 0 -10 -22 -10 -50z"/>
<path d="M2502 4398 c2 -23 9 -43 16 -46 13 -4 16 27 6 66 -10 38 -25 24 -22
-20z"/>
<path d="M2544 4418 c3 -13 6 -33 6 -45 0 -13 5 -23 10 -23 6 0 10 20 10 45 0
35 -4 45 -16 45 -12 0 -15 -6 -10 -22z"/>
<path d="M2630 4395 c0 -52 14 -60 24 -14 9 47 7 59 -9 59 -11 0 -15 -12 -15
-45z"/>
<path d="M2676 4409 c-9 -47 -7 -59 9 -59 11 0 15 12 15 45 0 52 -14 60 -24
14z"/>
<path d="M2719 4405 c-1 -19 -2 -40 -3 -47 -1 -6 5 -13 12 -15 8 -3 12 10 12
46 0 57 -19 71 -21 16z"/>
<path d="M2413 4400 c4 -18 7 -39 7 -46 0 -8 6 -14 13 -14 18 0 7 82 -12 88
-11 4 -13 -3 -8 -28z"/>
<path d="M2765 4418 c-11 -38 -11 -78 2 -78 7 0 13 6 13 14 0 7 3 28 6 45 4
20 3 31 -5 31 -6 0 -13 -6 -16 -12z"/>
<path d="M2327 4413 c-6 -13 14 -93 24 -93 10 0 12 24 3 69 -6 29 -18 40 -27
24z"/>
<path d="M2850 4408 c0 -7 -3 -30 -6 -50 -8 -47 12 -52 21 -5 4 17 9 40 11 50
4 11 0 17 -10 17 -9 0 -16 -6 -16 -12z"/>
<path d="M2280 4404 c0 -23 24 -94 32 -94 10 0 4 73 -8 92 -6 9 -24 11 -24 2z"/>
<path d="M2896 4402 c-12 -19 -18 -92 -8 -92 8 0 32 71 32 94 0 9 -18 7 -24
-2z"/>
<path d="M2240 4388 c0 -27 21 -88 30 -88 13 0 12 16 -1 63 -9 35 -29 52 -29
25z"/>
<path d="M2931 4363 c-13 -47 -14 -63 -1 -63 9 0 30 61 30 88 0 27 -20 10 -29
-25z"/>
<path d="M2146 4382 c-4 -7 29 -110 38 -119 1 -1 7 2 14 6 10 6 8 20 -9 64
-21 55 -32 67 -43 49z"/>
<path d="M3014 4352 c-18 -44 -23 -80 -10 -84 6 -2 20 23 32 54 18 46 19 58 8
62 -9 4 -19 -8 -30 -32z"/>
<path d="M2207 4335 c14 -43 33 -61 33 -31 0 27 -22 76 -35 76 -11 0 -11 -8 2
-45z"/>
<path d="M2971 4349 c-13 -39 -14 -59 -2 -59 5 0 16 20 24 45 13 37 13 45 2
45 -7 0 -18 -14 -24 -31z"/>
<path d="M2116 4352 c-3 -6 1 -27 10 -48 19 -47 20 -48 33 -40 6 4 3 21 -8 46
-21 48 -27 55 -35 42z"/>
<path d="M3056 4325 c-9 -21 -16 -44 -16 -51 0 -28 17 -13 33 28 22 54 5 76
-17 23z"/>
<path d="M2070 4330 c0 -21 34 -80 47 -80 13 0 7 26 -17 71 -11 20 -30 26 -30
9z"/>
<path d="M3107 4333 c-3 -5 -12 -25 -20 -45 -12 -29 -13 -38 -3 -38 12 0 46
60 46 80 0 12 -17 13 -23 3z"/>
<path d="M2030 4315 c0 -20 35 -85 46 -85 8 0 14 2 14 5 0 15 -42 85 -50 85
-6 0 -10 -2 -10 -5z"/>
<path d="M3130 4280 c-24 -46 -24 -50 -7 -50 12 0 47 59 47 80 0 23 -21 7 -40
-30z"/>
<path d="M1935 4300 c-6 -10 62 -140 73 -140 31 1 29 20 -9 83 -39 66 -52 77
-64 57z"/>
<path d="M3233 4298 c-49 -65 -73 -138 -45 -138 9 0 82 122 82 138 0 16 -25
15 -37 0z"/>
<path d="M1990 4295 c0 -15 42 -85 50 -85 15 0 12 15 -11 54 -18 31 -39 47
-39 31z"/>
<path d="M3171 4264 c-23 -39 -26 -54 -11 -54 8 0 50 70 50 85 0 16 -21 0 -39
-31z"/>
<path d="M2312 4225 c-18 -25 -32 -48 -32 -50 0 -3 14 -5 30 -5 23 0 30 -4 30
-20 0 -27 27 -25 31 3 6 35 -5 110 -16 114 -6 2 -25 -17 -43 -42z m28 -25 c0
-11 -7 -20 -15 -20 -18 0 -19 12 -3 28 16 16 18 15 18 -8z"/>
<path d="M2406 4248 c-32 -45 -14 -118 28 -118 32 0 51 25 51 70 0 65 -47 93
-79 48z m49 -49 c0 -32 -4 -45 -16 -47 -22 -4 -32 38 -19 73 15 40 35 25 35
-26z"/>
<path d="M2730 4258 c0 -7 -3 -23 -6 -35 -5 -18 -2 -23 14 -23 23 0 47 -25 37
-40 -3 -5 -20 -10 -36 -10 -18 0 -28 -4 -24 -10 9 -14 58 -13 73 2 22 22 14
58 -16 71 -34 14 -31 37 4 37 13 0 24 5 24 10 0 6 -16 10 -35 10 -21 0 -35 -5
-35 -12z"/>
<path d="M2836 4254 c-19 -18 -22 -94 -4 -112 7 -7 21 -12 33 -12 32 0 45 20
45 66 0 43 -19 74 -45 74 -7 0 -21 -7 -29 -16z m50 -29 c8 -33 -3 -75 -20 -75
-26 0 -36 66 -14 88 18 18 27 15 34 -13z"/>
<path d="M1916 4252 c-6 -11 41 -82 54 -82 16 0 12 13 -15 53 -27 39 -31 42
-39 29z"/>
<path d="M3245 4219 c-26 -40 -27 -62 -3 -41 7 6 21 24 31 41 27 47 1 48 -28
0z"/>
<path d="M1880 4224 c0 -13 42 -74 51 -74 13 0 11 9 -12 46 -18 30 -39 45 -39
28z"/>
<path d="M3280 4194 c-12 -19 -19 -38 -16 -42 8 -8 55 48 56 66 0 23 -18 12
-40 -24z"/>
<path d="M1846 4202 c-7 -12 43 -84 55 -77 5 4 2 19 -8 36 -22 38 -39 53 -47
41z"/>
<path d="M3324 4183 c-32 -43 -35 -51 -25 -57 13 -8 65 64 54 75 -6 6 -17 -2
-29 -18z"/>
<path d="M1807 4173 c-3 -5 8 -23 23 -42 38 -45 59 -31 22 15 -27 34 -37 40
-45 27z"/>
<path d="M3348 4146 c-37 -46 -16 -60 22 -15 25 31 30 49 12 49 -4 0 -19 -15
-34 -34z"/>
<path d="M1756 4161 c-9 -14 75 -104 87 -92 6 6 -3 25 -28 55 -38 46 -49 53
-59 37z"/>
<path d="M3382 4124 c-38 -42 -45 -64 -23 -64 18 0 84 91 74 101 -7 7 -24 -6
-51 -37z"/>
<path d="M2023 4133 c-21 -8 -15 -23 8 -20 29 3 37 -23 10 -30 -27 -7 -27 -23
-1 -23 13 0 20 -7 20 -20 0 -16 -7 -20 -30 -20 -16 0 -30 -5 -30 -11 0 -16 72
-6 83 12 6 9 7 24 2 35 -4 11 -7 30 -6 43 4 32 -22 48 -56 34z"/>
<path d="M2133 4134 c-7 -3 -17 -21 -23 -39 -15 -44 4 -88 40 -93 30 -5 50 21
50 63 0 52 -31 83 -67 69z m37 -35 c16 -28 3 -81 -18 -77 -19 4 -27 37 -18 74
8 29 22 31 36 3z"/>
<path d="M3060 4133 c-33 -12 -50 -37 -50 -73 0 -41 14 -60 45 -60 27 0 45 18
45 46 0 24 -15 40 -45 46 -18 4 -17 6 8 18 39 19 37 38 -3 23z m18 -86 c4 -20
-25 -34 -40 -19 -15 15 -1 44 19 40 10 -2 19 -11 21 -21z"/>
<path d="M3130 4120 c-40 -40 -20 -120 29 -120 22 0 31 7 41 29 15 37 5 88
-20 101 -25 13 -27 13 -50 -10z m48 -48 c2 -31 -1 -44 -13 -48 -22 -9 -27 -1
-27 40 0 69 35 76 40 8z"/>
<path d="M1744 4119 c-8 -13 52 -76 62 -66 4 3 -7 22 -24 41 -19 22 -34 31
-38 25z"/>
<path d="M3421 4096 c-19 -20 -31 -39 -27 -43 9 -9 69 52 65 66 -3 7 -19 -4
-38 -23z"/>
<path d="M1707 4093 c-8 -12 60 -79 70 -69 4 3 -9 23 -29 42 -19 20 -38 32
-41 27z"/>
<path d="M3450 4065 c-19 -19 -30 -38 -26 -42 3 -4 23 9 42 29 20 19 32 38 27
41 -6 4 -25 -9 -43 -28z"/>
<path d="M1676 4061 c-6 -10 50 -70 67 -71 15 0 6 17 -27 49 -20 20 -36 29
-40 22z"/>
<path d="M3482 4037 c-52 -54 -39 -66 17 -16 20 19 30 34 24 40 -5 5 -22 -4
-41 -24z"/>
<path d="M1645 4030 c-4 -7 6 -23 26 -40 58 -50 70 -34 15 19 -23 22 -36 29
-41 21z"/>
<path d="M1591 4016 c-9 -11 1 -24 50 -65 51 -43 64 -49 76 -39 13 11 10 17
-23 46 -77 65 -91 73 -103 58z"/>
<path d="M3505 4000 c-16 -16 -26 -33 -22 -36 7 -7 77 45 77 57 0 18 -27 8
-55 -21z"/>
<path d="M3535 3975 c-46 -41 -57 -56 -48 -65 9 -10 25 -2 70 35 66 53 69 58
51 73 -10 8 -28 -3 -73 -43z"/>
<path d="M1590 3957 c0 -14 52 -57 70 -57 18 0 11 16 -17 36 -46 33 -53 36
-53 21z"/>
<path d="M3567 3942 c-38 -28 -46 -42 -24 -42 19 1 81 56 70 63 -6 4 -27 -6
-46 -21z"/>
<path d="M1560 3921 c0 -9 32 -34 67 -55 6 -3 14 -2 18 3 3 6 -11 21 -32 35
-40 28 -53 32 -53 17z"/>
<path d="M3589 3905 c-32 -24 -41 -44 -16 -37 19 6 67 43 67 53 0 15 -14 10
-51 -16z"/>
<path d="M1535 3890 c-3 -5 11 -20 32 -34 40 -27 53 -32 53 -17 0 14 -78 62
-85 51z"/>
<path d="M3618 3873 c-35 -24 -49 -43 -30 -43 16 0 82 52 77 61 -7 11 -3 13
-47 -18z"/>
<path d="M1747 3883 c-13 -13 -7 -19 20 -18 39 0 38 -19 -3 -64 l-36 -41 48 1
c30 1 38 4 21 6 l-28 4 26 30 c26 31 29 46 19 73 -6 16 -54 22 -67 9z"/>
<path d="M1852 3878 c-18 -18 -15 -94 4 -112 35 -36 74 -6 74 58 0 46 -13 66
-45 66 -12 0 -26 -5 -33 -12z m52 -24 c17 -45 -7 -97 -32 -72 -22 22 -12 88
13 88 7 0 16 -7 19 -16z"/>
<path d="M3290 3880 c0 -5 14 -10 30 -10 l30 0 -25 -50 c-28 -55 -29 -60 -15
-60 8 0 70 110 70 125 0 3 -20 5 -45 5 -25 0 -45 -4 -45 -10z"/>
<path d="M3400 3871 c-16 -30 -12 -76 9 -102 16 -20 22 -22 43 -12 30 14 42
59 27 103 -9 24 -17 30 -40 30 -18 0 -32 -7 -39 -19z m58 -30 c5 -30 -6 -71
-18 -71 -17 0 -31 41 -25 71 8 36 38 36 43 0z"/>
<path d="M1510 3850 c0 -10 62 -51 77 -51 21 -1 8 19 -27 39 -44 25 -50 26
-50 12z"/>
<path d="M3637 3834 c-21 -14 -35 -29 -32 -34 7 -11 77 30 83 48 6 19 -10 14
-51 -14z"/>
<path d="M1470 3818 c0 -20 100 -72 113 -59 12 12 15 10 -45 44 -51 30 -68 33
-68 15z"/>
<path d="M3660 3804 c-56 -32 -56 -32 -43 -45 11 -11 106 39 105 56 -1 18 -17
15 -62 -11z"/>
<path d="M1470 3770 c0 -14 78 -52 85 -41 3 5 -10 19 -29 30 -36 23 -56 27
-56 11z"/>
<path d="M3672 3758 c-46 -29 -29 -41 23 -16 24 12 42 25 39 30 -8 12 -26 8
-62 -14z"/>
<path d="M1450 3734 c0 -14 55 -44 80 -44 23 0 7 17 -35 38 -38 18 -45 19 -45
6z"/>
<path d="M3703 3727 c-41 -20 -56 -37 -33 -37 18 0 77 27 84 38 12 20 -9 19
-51 -1z"/>
<path d="M1430 3696 c0 -15 77 -52 87 -42 9 9 -6 22 -49 40 -30 12 -38 12 -38
2z"/>
<path d="M3723 3690 c-39 -17 -58 -40 -33 -40 21 0 80 35 80 47 0 7 -1 13 -2
12 -2 0 -22 -9 -45 -19z"/>
<path d="M3141 3421 l-474 -259 -28 20 c-31 23 -93 27 -128 9 -30 -16 -61 -69
-61 -104 0 -68 54 -117 131 -117 33 0 47 6 75 34 29 29 34 41 34 83 l1 48 382
221 c342 198 383 220 389 202 4 -10 2 -27 -4 -38 -16 -25 5 -50 42 -50 35 0
54 22 44 52 -4 13 -6 35 -5 51 1 15 -2 27 -8 27 -24 0 -8 18 39 44 41 23 60
37 48 36 -2 0 -216 -117 -477 -259z m375 158 c10 -17 -13 -36 -27 -22 -12 12
-4 33 11 33 5 0 12 -5 16 -11z m3 -62 c13 -16 5 -27 -21 -27 -18 0 -25 20 -11
33 10 10 19 8 32 -6z m-902 -342 c48 -20 31 -39 -34 -40 -40 0 -49 -4 -62 -26
-13 -24 -13 -29 2 -53 29 -44 107 -25 107 25 0 10 9 23 20 29 16 9 20 8 21 -7
3 -39 -4 -59 -28 -85 -85 -90 -228 29 -152 126 36 46 70 54 126 31z"/>
<path d="M1410 3651 c0 -5 12 -14 28 -19 15 -5 35 -13 45 -17 11 -5 17 -3 17
7 0 8 -15 19 -33 26 -40 14 -57 15 -57 3z"/>
<path d="M3728 3647 c-16 -6 -28 -17 -28 -25 0 -10 6 -12 18 -7 9 4 29 12 45
17 15 5 27 14 27 19 0 12 -28 10 -62 -4z"/>
<path d="M1355 3630 c-8 -13 2 -30 18 -30 7 -1 26 -7 42 -15 l30 -14 -32 6
c-49 8 -40 -13 12 -30 37 -13 45 -13 45 -2 0 7 -6 16 -12 18 -7 3 2 3 21 0 28
-5 32 -3 30 12 -3 11 -27 26 -68 41 -72 27 -77 28 -86 14z"/>
<path d="M3746 3616 c-60 -22 -80 -42 -54 -51 21 -8 143 41 146 59 5 22 -20
20 -92 -8z"/>
<path d="M1577 3599 c-9 -6 -15 -15 -12 -20 4 -5 11 -7 16 -4 5 4 9 -18 9 -49
0 -31 5 -56 10 -56 6 0 10 30 10 70 0 72 -3 77 -33 59z"/>
<path d="M1675 3596 c-23 -17 -27 -85 -6 -110 18 -22 58 -20 71 3 15 28 12 73
-6 99 -18 26 -33 28 -59 8z m45 -32 c13 -34 2 -76 -19 -72 -10 2 -17 15 -19
37 -6 60 20 84 38 35z"/>
<path d="M3577 3592 c-34 -37 -15 -122 26 -122 35 0 47 19 47 72 0 37 -4 50
-19 58 -27 14 -35 13 -54 -8z m49 -26 c9 -37 1 -70 -18 -74 -23 -4 -34 41 -19
74 14 31 29 31 37 0z"/>
<path d="M3758 3568 c-16 -5 -28 -16 -28 -23 0 -11 8 -11 45 2 25 8 45 19 45
24 0 11 -27 10 -62 -3z"/>
<path d="M1365 3531 c-5 -9 53 -31 83 -31 27 0 10 20 -25 29 -47 13 -50 13
-58 2z"/>
<path d="M3773 3528 c-32 -11 -45 -28 -20 -28 29 0 87 22 82 31 -7 11 -20 10
-62 -3z"/>
<path d="M1356 3491 c-8 -13 3 -19 52 -27 47 -7 59 10 15 20 -16 4 -35 9 -45
12 -9 3 -19 0 -22 -5z"/>
<path d="M3788 3488 c-52 -14 -49 -32 4 -24 48 8 60 14 53 27 -7 10 -7 10 -57
-3z"/>
<path d="M1345 3450 c-7 -12 6 -18 53 -26 29 -4 42 -3 42 5 0 6 -3 11 -7 11
-5 0 -25 4 -46 9 -20 5 -39 5 -42 1z"/>
<path d="M3803 3448 c-24 -5 -43 -14 -43 -20 0 -12 80 -2 93 11 15 15 -6 18
-50 9z"/>
<path d="M1310 3408 c0 -19 112 -41 122 -24 10 15 -8 22 -69 31 -43 5 -53 4
-53 -7z"/>
<path d="M3803 3408 c-37 -7 -53 -14 -53 -25 0 -12 8 -14 38 -9 81 14 92 18
92 32 0 16 -3 16 -77 2z"/>
<path d="M1330 3361 c0 -13 26 -21 66 -21 46 0 43 16 -3 24 -51 8 -63 8 -63
-3z"/>
<path d="M3798 3363 c-40 -6 -35 -23 6 -23 40 0 66 8 66 21 0 9 -21 10 -72 2z"/>
<path d="M1325 3321 c-7 -13 6 -18 58 -23 25 -3 37 0 37 9 0 8 -12 13 -29 13
-16 0 -36 3 -44 6 -8 3 -18 1 -22 -5z"/>
<path d="M3818 3323 c-22 -3 -38 -10 -38 -17 0 -15 90 -6 91 9 1 12 -6 13 -53
8z"/>
<path d="M1320 3270 c0 -5 18 -10 40 -10 22 0 43 0 47 -1 4 0 9 4 11 10 2 7
-15 11 -47 11 -28 0 -51 -4 -51 -10z"/>
<path d="M3787 3274 c-14 -14 3 -19 47 -16 25 2 46 8 46 13 0 10 -83 12 -93 3z"/>
<path d="M1320 3231 c0 -12 75 -25 90 -16 6 3 8 11 5 16 -8 12 -95 12 -95 0z"/>
<path d="M1499 3224 c-7 -9 -14 -33 -14 -54 0 -65 47 -93 79 -48 43 61 -19
157 -65 102z m51 -29 c11 -30 -4 -79 -23 -73 -13 5 -22 61 -13 84 8 22 26 17
36 -11z"/>
<path d="M3542 3228 c-27 -27 -7 -78 31 -78 16 0 17 -3 7 -15 -7 -8 -19 -15
-26 -15 -8 0 -14 -4 -14 -10 0 -18 36 -10 58 13 24 26 30 85 10 105 -7 7 -21
12 -33 12 -12 0 -26 -5 -33 -12z m56 -31 c4 -20 -25 -34 -40 -19 -15 15 -1 44
19 40 10 -2 19 -11 21 -21z"/>
<path d="M3646 3218 c-30 -43 -9 -118 34 -118 24 0 50 37 50 70 0 33 -26 70
-50 70 -10 0 -26 -10 -34 -22z m49 -49 c0 -32 -4 -44 -15 -44 -16 0 -26 54
-16 82 12 30 31 6 31 -38z"/>
<path d="M3790 3225 c0 -16 12 -18 59 -9 46 10 38 24 -14 24 -33 0 -45 -4 -45
-15z"/>
<path d="M3760 3185 c0 -12 16 -15 85 -15 69 0 85 3 85 15 0 12 -16 15 -85 15
-69 0 -85 -3 -85 -15z"/>
<path d="M1270 3175 c0 -12 16 -15 85 -15 69 0 85 3 85 15 0 12 -16 15 -85 15
-69 0 -85 -3 -85 -15z"/>
<path d="M3785 3140 c-4 -6 13 -10 44 -10 28 0 51 5 51 10 0 6 -20 10 -44 10
-25 0 -48 -4 -51 -10z"/>
<path d="M3780 3100 c0 -5 23 -10 50 -10 28 0 50 5 50 10 0 6 -22 10 -50 10
-27 0 -50 -4 -50 -10z"/>
<path d="M3780 3061 c0 -10 89 -26 97 -17 3 2 2 9 -2 15 -8 13 -95 15 -95 2z"/>
<path d="M3770 3022 c0 -12 87 -28 97 -18 11 11 -5 18 -52 23 -28 4 -45 2 -45
-5z"/>
<path d="M3753 2987 c-6 -11 15 -27 37 -27 8 0 32 -3 53 -6 29 -5 37 -3 37 8
0 18 -117 41 -127 25z"/>
<path d="M3760 2942 c0 -11 10 -14 62 -26 25 -6 48 7 31 17 -19 11 -93 18 -93
9z"/>
<path d="M3485 2906 c-23 -17 -27 -85 -6 -110 18 -22 58 -20 71 3 15 28 12 73
-6 99 -18 26 -33 28 -59 8z m45 -32 c13 -34 2 -76 -19 -72 -10 2 -17 15 -19
37 -6 60 20 84 38 35z"/>
<path d="M3587 2902 c-34 -37 -15 -122 26 -122 34 0 47 19 47 66 0 65 -39 94
-73 56z m49 -26 c9 -37 1 -70 -18 -74 -23 -4 -34 41 -19 74 14 31 29 31 37 0z"/>
<path d="M3375 2900 c-6 -9 1 -14 18 -11 4 0 7 -24 7 -54 0 -30 5 -55 10 -55
6 0 10 28 10 65 0 58 -2 65 -19 65 -11 0 -23 -4 -26 -10z"/>
<path d="M3750 2900 c0 -14 81 -33 92 -22 7 7 -3 14 -28 21 -48 13 -64 14 -64
1z"/>
<path d="M3740 2861 c0 -14 68 -34 88 -26 13 6 10 10 -18 20 -42 16 -70 18
-70 6z"/>
<path d="M3730 2821 c0 -9 53 -31 76 -31 28 0 13 19 -23 29 -47 13 -53 13 -53
2z"/>
<path d="M3696 2793 c-8 -20 -13 -17 68 -47 81 -31 86 -31 86 -8 0 14 -19 25
-74 44 -65 23 -75 25 -80 11z"/>
<path d="M3700 2745 c0 -7 12 -18 28 -23 15 -5 35 -13 45 -17 11 -5 17 -3 17
7 0 7 -20 21 -45 30 -36 14 -45 14 -45 3z"/>
<path d="M3685 2710 c-4 -6 13 -19 37 -30 26 -11 44 -15 47 -9 4 13 1 16 -41
34 -24 9 -39 11 -43 5z"/>
<path d="M3666 2672 c-3 -5 15 -18 39 -30 56 -27 70 -10 16 18 -45 23 -48 23
-55 12z"/>
<path d="M3650 2635 c0 -17 76 -59 84 -46 7 10 -7 23 -51 45 -29 14 -33 15
-33 1z"/>
<path d="M3615 2610 c-9 -14 -3 -19 57 -53 31 -18 49 -23 54 -16 8 13 1 19
-58 53 -32 19 -48 23 -53 16z"/>
<path d="M3213 2593 c-18 -7 -16 -23 2 -23 12 0 15 -13 15 -55 0 -30 5 -55 10
-55 6 0 10 30 10 70 0 70 -4 77 -37 63z"/>
<path d="M3320 2590 c-11 -7 -12 -12 -3 -18 6 -4 13 -30 15 -57 4 -71 22 -57
26 20 3 67 -4 77 -38 55z"/>
<path d="M3412 2588 c-18 -18 -15 -94 4 -112 35 -36 74 -6 74 58 0 46 -13 66
-45 66 -12 0 -26 -5 -33 -12z m54 -33 c8 -34 -3 -75 -21 -75 -18 0 -29 41 -21
75 4 14 13 25 21 25 8 0 17 -11 21 -25z"/>
<path d="M3606 2573 c-12 -12 -6 -20 33 -41 43 -24 51 -26 51 -13 0 12 -77 61
-84 54z"/>
<path d="M3580 2531 c0 -9 32 -34 67 -55 6 -3 14 -2 18 3 3 6 -11 21 -32 35
-40 28 -53 32 -53 17z"/>
<path d="M3560 2497 c0 -14 52 -57 70 -57 18 0 11 16 -17 36 -46 33 -53 36
-53 21z"/>
<path d="M3530 2462 c0 -14 73 -62 83 -55 6 3 -5 19 -24 34 -34 28 -59 37 -59
21z"/>
<path d="M3496 2453 c-14 -14 -3 -31 55 -77 47 -38 63 -46 72 -37 9 10 1 23
-38 58 -57 51 -80 65 -89 56z"/>
<path d="M3480 2400 c0 -17 64 -69 74 -60 4 4 -7 22 -25 39 -36 32 -49 38 -49
21z"/>
<path d="M2964 2375 c-17 -13 -17 -14 -1 -15 14 0 17 -9 17 -55 0 -30 5 -55
10 -55 6 0 10 30 10 70 0 39 -4 70 -8 70 -5 0 -17 -7 -28 -15z"/>
<path d="M3057 2383 c-15 -14 -6 -23 18 -17 40 10 44 -21 6 -60 -43 -44 -40
-56 14 -56 25 0 45 5 45 10 0 6 -13 10 -30 10 l-29 0 24 26 c28 31 33 79 9 88
-21 8 -49 8 -57 -1z"/>
<path d="M3166 2374 c-9 -9 -16 -32 -16 -54 0 -42 20 -70 49 -70 28 0 44 26
44 70 0 63 -40 91 -77 54z m49 -54 c0 -50 -19 -64 -36 -26 -9 20 -9 32 0 52
17 38 36 24 36 -26z"/>
<path d="M3450 2372 c0 -14 66 -73 73 -65 4 4 -7 22 -25 40 -31 32 -48 41 -48
25z"/>
<path d="M3420 2342 c0 -14 66 -73 73 -65 4 4 -7 22 -25 40 -31 32 -48 41 -48
25z"/>
<path d="M3390 2313 c1 -19 59 -75 70 -68 8 5 1 18 -21 41 -32 33 -49 42 -49
27z"/>
<path d="M3355 2297 c-8 -18 51 -97 73 -97 22 0 12 24 -28 70 -32 36 -40 41
-45 27z"/>
<path d="M3327 2263 c-7 -12 50 -76 63 -71 7 2 0 18 -17 40 -28 38 -38 44 -46
31z"/>
<path d="M3295 2240 c-7 -11 42 -80 56 -80 15 0 11 12 -17 52 -29 42 -30 42
-39 28z"/>
<path d="M3260 2210 c0 -18 43 -70 57 -70 9 0 4 13 -13 40 -26 39 -44 51 -44
30z"/>
<path d="M3226 2192 c-7 -12 43 -84 55 -77 5 4 2 19 -8 36 -22 38 -39 53 -47
41z"/>
<path d="M3176 2181 c-6 -9 58 -126 73 -136 4 -2 13 0 20 4 10 7 4 24 -25 75
-37 62 -56 78 -68 57z"/>
</g>
</svg>
